# xmcd
#
# Track frame offsets: 
#        150
#        13864
#        28714
#        50033
#        67139
#        83843
#        100948
#        134308
#        153275
#        173198
#        187665
#        204141
#        217981
#
# Disc length: 3153 seconds
#
# Revision: 0
# Processed by: cddbd v1.5.2PL0 Copyright (c) Steve Scherf et al.
# Submitted via: ExactAudioCopyFreeDBPlugin 1.0
#
DISCID=aa0c4f0d
DTITLE=Alan Jackson - Thirty Miles West
DYEAR=2012
DGENRE=Country
TTITLE0=Gonna Home Back As A Country Song
TTITLE1=You Go Your Way
TTITLE2=Everything But The Wings
TTITLE3=Talk Is Cheap
TTITLE4=So You Don't Have To Love Me Anymore
TTITLE5=Look Her In The Eye And Lie
TTITLE6=Dixi Highway (Zac Brown)
TTITLE7=She Don't Get High
TTITLE8=Her Life's A Song
TTITLE9=Nothin' Fancy
TTITLE10=Long Way To Go
TTITLE11=Life Keeps Bringing Me Down
TTITLE12=When I Saw You Leaving (For Nicey)
EXTD=
EXTT0=
EXTT1=
EXTT2=
EXTT3=
EXTT4=
EXTT5=
EXTT6=
EXTT7=
EXTT8=
EXTT9=
EXTT10=
EXTT11=
EXTT12=
PLAYORDER=
